<svg width="16" height="16" viewBox="0 0 16 16" fill="none" xmlns="http://www.w3.org/2000/svg">
<g clip-path="url(#clip0_1013_205)">
<path d="M8 6V7.33333M8 10V10.0067" stroke="#FFA800" stroke-width="1.3" stroke-linecap="round" stroke-linejoin="round"/>
<path d="M3.33338 12.6667H12.6667C12.8843 12.6652 13.0981 12.6105 13.2896 12.5073C13.4812 12.4041 13.6445 12.2557 13.7655 12.0749C13.8865 11.8941 13.9614 11.6864 13.9837 11.47C14.006 11.2536 13.975 11.0351 13.8934 10.8334L9.16005 2.66672C9.04474 2.45832 8.87572 2.2846 8.67055 2.16364C8.46538 2.04268 8.23155 1.97888 7.99338 1.97888C7.75521 1.97888 7.52138 2.04268 7.31621 2.16364C7.11104 2.2846 6.94202 2.45832 6.82671 2.66672L2.09338 10.8334C2.01334 11.0304 1.9816 11.2438 2.00081 11.4556C2.02002 11.6674 2.08963 11.8716 2.20381 12.051C2.318 12.2304 2.47345 12.3799 2.6572 12.4871C2.84094 12.5942 3.04764 12.6558 3.26005 12.6667" stroke="#FFA800" stroke-width="1.3" stroke-linecap="round" stroke-linejoin="round"/>
</g>
<defs>
<clipPath id="clip0_1013_205">
<rect width="16" height="16" fill="white"/>
</clipPath>
</defs>
</svg>
