<svg height="40" viewBox="0 0 40 40" width="40" xmlns="http://www.w3.org/2000/svg" xmlns:xlink="http://www.w3.org/1999/xlink"><linearGradient id="g" x1="100%" x2="0%" y1="0%" y2="95.697464%"><stop offset="0" stop-color="#59f979"/><stop offset="1" stop-color="#23b852"/></linearGradient><path d="m26.0470353 26.9764865h7.5242918v6.594871h-22.5970282l28.0842487-28.08425087c.9192252-.91922995 1.1941403-2.30176884.6967358-3.50287704-.4975467-1.20110819-1.6695233-1.98422959-2.9696516-1.98422959h-33.57118501c-1.77536915 0-3.21430472 1.43908503-3.21430472 3.21432123v9.80919227h-.00014207v13.952973l13.9529012-13.952973h-7.5241497v-6.59487103h22.5970282l-28.0842487 28.08410883c-.91922523.919372-1.19428242 2.302053-.69673578 3.5030191.49754664 1.2011082 1.66952328 1.9842296 2.96965157 1.9842296h33.57118501c1.7752271 0 3.2143047-1.439085 3.2143047-3.2143212v-9.8091923-13.952973z" fill="url(#g)" fill-rule="evenodd"/></svg>
